<?xml version="1.0" encoding="utf-8"?>
<!-- Generator: Adobe Illustrator 16.0.0, SVG Export Plug-In . SVG Version: 6.00 Build 0)  -->
<!DOCTYPE svg PUBLIC "-//W3C//DTD SVG 1.1//EN" "http://www.w3.org/Graphics/SVG/1.1/DTD/svg11.dtd">
<svg version="1.1" id="Layer_1" xmlns="http://www.w3.org/2000/svg" xmlns:xlink="http://www.w3.org/1999/xlink" x="0px" y="0px"
	 width="124.631px" height="124.631px" viewBox="-279.672 -450.831 124.631 124.631"
	 enable-background="new -279.672 -450.831 124.631 124.631" xml:space="preserve">
<g>
	<path fill="#FFFFFF" d="M-216.677-390.305c-1.707,0-3.382,0.414-5.021,1.234c-1.647,0.823-3.27,2.072-4.873,3.74v12.064
		c0,3.11,0.206,5.344,0.621,6.706c0.414,1.37,1.409,3.05,2.991,4.303c1.578,1.249,3.424,2.075,5.529,2.075
		c3.236,0,5.811-1.898,7.732-4.56c1.919-2.663,2.879-6.486,2.879-11.484c0-4.587-0.901-8.084-2.693-10.48
		C-211.302-389.103-213.694-390.305-216.677-390.305z"/>
	<path fill="#FFFFFF" d="M-217.357-450.831c-34.416,0-62.315,27.898-62.315,62.315c0,34.417,27.899,62.316,62.315,62.316
		c34.417,0,62.316-27.899,62.316-62.316C-155.041-422.933-182.94-450.831-217.357-450.831z M-178.111-399.522
		c-1.334-2.051-2.909-3.073-4.717-3.073c-0.933,0-1.805,0.301-2.625,0.909c-0.817,0.61-1.356,1.413-1.603,2.412
		c-0.218,0.861-0.339,2.418-0.371,4.673h0.015c0,0.21,0,0.617,0,0.617h6.435v1.608h-6.435l0.007,21.596c0,0,0,3.436-0.284,5.525
		c-0.211,1.239-0.739,3.078-2.063,4.422c-2.373,2.405-5.693,3.202-8.634,2.152c-1.877-0.636-3.013-1.697-4.281-3.088
		c-0.952-1.044-1.739-1.609-2.613-1.146c-0.463,0.246-0.769,0.483-0.94,0.595c-3.506,2.555-6.955,4.095-10.026,4.095
		c-3.619,0-6.677-1.063-10.69-4.581c-1.138-0.997-1.861-1.235-2.658-0.967c-0.747,0.25-2.291,2.246-2.291,2.246
		c-3.598,4.305-10.089,4.247-13.687,0.695c-1.645-1.626-2.076-3.975-2.215-5.107c-0.094-0.789-0.196-2.122-0.196-5.491v-20.957
		h-4.462v-1.536c2.071-0.05,3.922-0.914,5.562-2.593c1.641-1.677,2.688-5.62,3.145-8.653h1.171v11.173h4.676v1.608h-4.676v22.145
		c0,2.888,0.122,4.831,0.374,5.83c0.252,1.004,0.785,1.806,1.604,2.41c0.822,0.609,1.694,0.911,2.627,0.911
		c2.853,0,5.968-2.273,5.968-6.808l0.007-50.854c0-3.021-0.081-4.974-0.24-5.856c-0.167-0.882-0.58-1.535-1.247-1.964
		c-0.665-0.43-1.828-0.642-3.484-0.642v-1.608c1.479,0,3.259-0.179,5.344-0.537c2.078-0.356,3.495-0.715,4.25-1.074h0.792v42.913
		c1.758-1.572,3.539-2.745,5.353-3.521c1.807-0.772,3.64-1.161,5.501-1.161c4.447,0,8.089,1.547,10.929,4.636
		c2.84,3.089,4.258,7.034,4.258,11.834c0,2.926-0.711,5.449-1.666,7.848c-0.443,1.112-0.351,2.113,0.023,2.991
		c0.421,1.115,1.962,4.309,5.676,3.835c2.951-0.382,3.687-3.422,3.688-7.93c0-0.035-0.04-23.386-0.04-23.386h-6.3v-1.608h6.3
		c0,0,0.029-0.555,0.029-0.617h0.005c0.057-2.385,0.219-4.135,0.477-5.239c0.34-1.445,1.199-2.702,2.57-3.777
		c1.372-1.071,2.964-1.61,4.781-1.61c1.562,0,3.1,0.419,4.628,1.255c1.524,0.836,2.679,2.085,3.46,3.737L-178.111-399.522z"/>
</g>
</svg>
