<?xml version="1.0" encoding="utf-8"?>
<!-- Generator: Adobe Illustrator 16.0.0, SVG Export Plug-In . SVG Version: 6.00 Build 0)  -->
<!DOCTYPE svg PUBLIC "-//W3C//DTD SVG 1.1//EN" "http://www.w3.org/Graphics/SVG/1.1/DTD/svg11.dtd">
<svg version="1.1" id="Layer_1" xmlns="http://www.w3.org/2000/svg" xmlns:xlink="http://www.w3.org/1999/xlink" x="0px" y="0px"
	 width="29.108px" height="27.822px" viewBox="169.624 375.943 29.108 27.822"
	 enable-background="new 169.624 375.943 29.108 27.822" xml:space="preserve">
<path fill="#696563" d="M197.398,386.142c-0.588-0.323-1.182-0.483-1.783-0.483c-0.7,0-1.313,0.206-1.842,0.619
	c-0.528,0.414-0.858,0.898-0.99,1.456c-0.1,0.426-0.162,1.099-0.185,2.019h-0.001c0,0.023-0.012,0.236-0.012,0.236h-2.429v0.62
	h2.429c0,0,0.016,8.996,0.016,9.01c-0.002,1.736-0.285,2.908-1.422,3.057c-1.431,0.183-2.025-1.049-2.188-1.479
	c-0.143-0.339-0.179-0.724-0.008-1.15c0.367-0.925,0.642-1.897,0.642-3.024c0-1.851-0.548-3.369-1.641-4.561
	c-1.095-1.189-2.497-1.784-4.211-1.784c-0.717,0-1.423,0.148-2.12,0.445c-0.699,0.301-1.385,0.752-2.062,1.357v-16.535h-0.305
	c-0.293,0.139-0.838,0.277-1.638,0.414c-0.803,0.139-1.488,0.208-2.058,0.208v0.618c0.638,0,1.086,0.082,1.342,0.248
	c0.257,0.165,0.416,0.417,0.48,0.756c0.062,0.341,0.094,1.094,0.094,2.257l-0.004,19.595c0,1.746-1.2,2.623-2.299,2.623
	c-0.36,0-0.696-0.116-1.014-0.353c-0.315-0.232-0.521-0.541-0.617-0.928c-0.098-0.385-0.145-1.133-0.145-2.245v-8.533h1.802v-0.62
	h-1.802v-4.304h-0.452c-0.176,1.169-0.579,2.688-1.21,3.335c-0.633,0.646-1.346,0.978-2.144,0.998v0.591h1.719v8.075
	c0,1.297,0.04,1.812,0.078,2.115c0.052,0.436,0.218,1.341,0.852,1.969c1.387,1.369,3.887,1.39,5.273-0.269
	c0,0,0.595-0.769,0.883-0.864c0.308-0.104,0.586-0.012,1.023,0.372c1.547,1.354,2.724,1.764,4.119,1.764
	c1.185,0,2.514-0.593,3.863-1.576c0.065-0.044,0.186-0.135,0.361-0.229c0.337-0.179,0.64,0.038,1.008,0.441
	c0.488,0.536,0.927,0.945,1.65,1.189c1.132,0.404,2.412,0.098,3.326-0.828c0.511-0.519,0.715-1.227,0.795-1.705
	c0.109-0.804,0.109-2.128,0.109-2.128l-0.002-8.321h2.479v-0.62h-2.479c0,0,0-0.155,0-0.236h-0.007
	c0.013-0.869,0.06-1.469,0.145-1.801c0.093-0.386,0.3-0.695,0.616-0.93s0.651-0.35,1.012-0.35c0.696,0,1.303,0.394,1.817,1.184
	l0.467-0.274C198.43,386.944,197.986,386.463,197.398,386.142 M183.114,403.013c-0.81,0-1.522-0.317-2.13-0.8
	c-0.61-0.482-0.992-1.129-1.152-1.657c-0.159-0.527-0.239-1.387-0.239-2.585v-4.648c0.618-0.642,1.243-1.123,1.878-1.441
	c0.632-0.316,1.276-0.475,1.936-0.475c1.148,0,2.07,0.462,2.761,1.386c0.688,0.924,1.037,2.271,1.037,4.039
	c0,1.925-0.37,3.398-1.109,4.425C185.353,402.281,184.362,403.013,183.114,403.013z"/>
</svg>
